<svg width="99" height="100" viewBox="0 0 99 100" fill="none" xmlns="http://www.w3.org/2000/svg">
<path fill-rule="evenodd" clip-rule="evenodd" d="M49.0909 20.8333C49.0909 13.9298 54.5856 8.33333 61.3636 8.33333H77.7273C84.5053 8.33333 90 13.9298 90 20.8333V79.1667C90 86.0702 84.5053 91.6667 77.7273 91.6667H61.3636C54.5856 91.6667 49.0909 86.0702 49.0909 79.1667V20.8333ZM61.3636 16.6667C59.1043 16.6667 57.2727 18.5321 57.2727 20.8333V79.1667C57.2727 81.4678 59.1043 83.3333 61.3636 83.3333H77.7273C79.9866 83.3333 81.8182 81.4678 81.8182 79.1667V20.8333C81.8182 18.5321 79.9866 16.6667 77.7273 16.6667H61.3636ZM8.18182 37.5C8.18182 30.5964 13.6765 25 20.4545 25H40.9091C43.1684 25 45 26.8655 45 29.1667C45 31.4678 43.1684 33.3333 40.9091 33.3333H20.4545C18.1952 33.3333 16.3636 35.1988 16.3636 37.5V62.5C16.3636 64.8012 18.1952 66.6667 20.4545 66.6667H40.9091C43.1684 66.6667 45 68.5321 45 70.8333C45 73.1345 43.1684 75 40.9091 75H20.4545C13.6765 75 8.18182 69.4035 8.18182 62.5V37.5ZM69.5455 25C71.8048 25 73.6364 26.8655 73.6364 29.1667V70.8333C73.6364 73.1345 71.8048 75 69.5455 75C67.2861 75 65.4545 73.1345 65.4545 70.8333V29.1667C65.4545 26.8655 67.2861 25 69.5455 25ZM8.18182 87.5C8.18182 85.1988 10.0134 83.3333 12.2727 83.3333H40.9091C43.1684 83.3333 45 85.1988 45 87.5C45 89.8012 43.1684 91.6667 40.9091 91.6667H12.2727C10.0134 91.6667 8.18182 89.8012 8.18182 87.5Z" fill="black"/>
</svg>
