<svg width="98" height="100" viewBox="0 0 98 100" fill="none" xmlns="http://www.w3.org/2000/svg">
<path fill-rule="evenodd" clip-rule="evenodd" d="M8.10811 29.1667C8.10811 17.6607 17.1834 8.33334 28.3784 8.33334H68.9189C80.1139 8.33334 89.1892 17.6607 89.1892 29.1667V54.1667C89.1892 65.6726 80.1139 75 68.9189 75H28.3784C17.1834 75 8.10811 65.6726 8.10811 54.1667V29.1667ZM28.3784 16.6667C21.6614 16.6667 16.2162 22.2631 16.2162 29.1667V54.1667C16.2162 61.0702 21.6614 66.6667 28.3784 66.6667H68.9189C75.6359 66.6667 81.0811 61.0702 81.0811 54.1667V29.1667C81.0811 22.2631 75.6359 16.6667 68.9189 16.6667H28.3784ZM8.10811 87.5C8.10811 85.1988 9.92317 83.3333 12.1622 83.3333H85.1351C87.3741 83.3333 89.1892 85.1988 89.1892 87.5C89.1892 89.8012 87.3741 91.6667 85.1351 91.6667H12.1622C9.92317 91.6667 8.10811 89.8012 8.10811 87.5Z" fill="black"/>
</svg>
