<svg width="83" height="84" viewBox="0 0 83 84" fill="none" xmlns="http://www.w3.org/2000/svg">
<path fill-rule="evenodd" clip-rule="evenodd" d="M0 20.8333C0 9.3274 9.24183 0 20.6422 0H61.9266C73.327 0 82.5688 9.3274 82.5688 20.8333C82.5688 23.1345 80.7204 25 78.4404 25C76.1603 25 74.3119 23.1345 74.3119 20.8333C74.3119 13.9298 68.7668 8.33333 61.9266 8.33333H20.6422C13.802 8.33333 8.25688 13.9298 8.25688 20.8333V45.8333C8.25688 52.7369 13.802 58.3333 20.6422 58.3333H33.0275C35.3076 58.3333 37.156 60.1988 37.156 62.5C37.156 64.8012 35.3076 66.6667 33.0275 66.6667H20.6422C9.24183 66.6667 0 57.3393 0 45.8333V20.8333ZM45.4128 41.6667C45.4128 34.7631 50.9579 29.1667 57.7982 29.1667H70.1835C77.0237 29.1667 82.5688 34.7631 82.5688 41.6667V70.8333C82.5688 77.7369 77.0237 83.3333 70.1835 83.3333H57.7982C50.9579 83.3333 45.4128 77.7369 45.4128 70.8333V41.6667ZM57.7982 37.5C55.5181 37.5 53.6697 39.3655 53.6697 41.6667V70.8333C53.6697 73.1345 55.5181 75 57.7982 75H70.1835C72.4636 75 74.3119 73.1345 74.3119 70.8333V41.6667C74.3119 39.3655 72.4636 37.5 70.1835 37.5H57.7982ZM0 79.1667C0 76.8655 1.84837 75 4.12844 75H33.0275C35.3076 75 37.156 76.8655 37.156 79.1667C37.156 81.4678 35.3076 83.3333 33.0275 83.3333H4.12844C1.84837 83.3333 0 81.4678 0 79.1667Z" fill="black"/>
</svg>
